# xmcd
#
# Track frame offsets:
#	150
#	11182
#	18987
#	30587
#	42322
#	52615
#	66727
#	79562
#	90940
#	102297
#	113317
#	124930
#	134640
#	146272
#	156207
#	170332
#	184727
#	196065
#	212977
#	224922
#	235517
#	246120
#	260332
#	270685
#	276292
#
# Disc length: 3823 seconds
#
# Revision: 6
# Processed by: cddbd v1.5.2PL0 Copyright (c) Steve Scherf et al.
# Submitted via: EasyCDDAExtractor 16.0.6.1
#
DISCID=5f0eed19
DTITLE=Varios - C-055 Country 25 Favourite Hits CD 2
DYEAR=1991
DGENRE=Country and Western
TTITLE0=Guy Mitchell - Singin' The Blues
TTITLE1=Roy Drusky - Hello Walls
TTITLE2=Patsy Cline - I've Loved And Lost Again
TTITLE3=Frankie Laine - Mule Train
TTITLE4=Barbara Mandrell - Kaw-Liga
TTITLE5=George Jones - Wedding Bells
TTITLE6=Faron Young - It's Four In The Morning
TTITLE7=Roy Drusky - Blue Eyes Cryin' In The Rain
TTITLE8=Waylon Jennings - Sally Was A Good Old Girl
TTITLE9=Dolly Parton - "It Wasn't God Who Made Honky Tonk Angels
TTITLE10=Willie Nelson - Touch Me
TTITLE11=Barbara Mandrell - Release Me
TTITLE12=Guy Mitchell - Heartaches By The Number
TTITLE13=Stonewall Jackson - Shake 'Em Up, Roll 'Em
TTITLE14=Kenny Rogers - The First Edition - Sunshine
TTITLE15=George Jones - Things Have Gone To Pieces
TTITLE16=Razy Bailey - 9,999,999 Tears
TTITLE17=Willie Nelson - I Let My Mind Wonder
TTITLE18=Waylon Jennings - Crying
TTITLE19=Patsy Cline - Honky Tonk Merry Go Round
TTITLE20=Kenny Rogers - The First Edition - Ticket To Nowhere
TTITLE21=Stonewall Jackson - Keep Off The Grass
TTITLE22=Carl Perkins - Daddy Sang Bass
TTITLE23=Willie Nelson - The Ghost
TTITLE24=Faron Young - If You Ain't Lovin'
EXTD=YEAR: 1991 ID3G: 2
EXTT0=
EXTT1=
EXTT2=
EXTT3=
EXTT4=
EXTT5=
EXTT6=
EXTT7=
EXTT8=
EXTT9=
EXTT10=
EXTT11=
EXTT12=
EXTT13=
EXTT14=
EXTT15=
EXTT16=
EXTT17=
EXTT18=
EXTT19=
EXTT20=
EXTT21=
EXTT22=
EXTT23=
EXTT24=
PLAYORDER=
